<mxfile host="app.diagrams.net" modified="2024-06-18T04:56:00.594Z" agent="Mozilla/5.0 (X11; Linux x86_64) AppleWebKit/537.36 (KHTML, like Gecko) Chrome/124.0.0.0 Safari/537.36" etag="_G073P9uNPvtsexCk9qI" version="24.5.4" type="device">
  <diagram name="Page-1" id="3WZXCcGGDhyHxZmiTpcR">
    <mxGraphModel dx="828" dy="566" grid="1" gridSize="10" guides="1" tooltips="1" connect="1" arrows="1" fold="1" page="1" pageScale="1" pageWidth="827" pageHeight="1169" math="0" shadow="0">
      <root>
        <mxCell id="0" />
        <mxCell id="1" parent="0" />
        <mxCell id="seh4svDidzUT8uE2Y29x-1" value="&lt;font style=&quot;font-size: 16px;&quot;&gt;Server&lt;/font&gt;" style="rounded=0;whiteSpace=wrap;html=1;align=left;verticalAlign=bottom;" parent="1" vertex="1">
          <mxGeometry x="24" y="30" width="780" height="630" as="geometry" />
        </mxCell>
        <mxCell id="seh4svDidzUT8uE2Y29x-3" value="&lt;font style=&quot;font-size: 27px;&quot;&gt;Main&lt;/font&gt;" style="rounded=1;whiteSpace=wrap;html=1;fillColor=#dae8fc;strokeColor=#6c8ebf;verticalAlign=bottom;" parent="1" vertex="1">
          <mxGeometry x="59" y="120" width="710" height="410" as="geometry" />
        </mxCell>
        <mxCell id="GDawss019be2_g49NsiS-8" value="Worker" style="verticalLabelPosition=bottom;verticalAlign=top;html=1;shape=mxgraph.basic.patternFillRect;fillStyle=grid;step=5;fillStrokeWidth=0.2;fillStrokeColor=#dddddd;fillColor=#f8cecc;strokeColor=#b85450;" vertex="1" parent="1">
          <mxGeometry x="90" y="150" width="270" height="337.5" as="geometry" />
        </mxCell>
        <mxCell id="seh4svDidzUT8uE2Y29x-6" value="Ubun-vm" style="verticalLabelPosition=bottom;verticalAlign=top;html=1;shape=mxgraph.basic.rect;fillColor2=none;strokeWidth=1;size=20;indent=5;fillColor=#d5e8d4;strokeColor=#82b366;align=right;" parent="1" vertex="1">
          <mxGeometry x="120" y="170" width="205" height="270" as="geometry" />
        </mxCell>
        <mxCell id="seh4svDidzUT8uE2Y29x-11" value="Worker2" style="verticalLabelPosition=bottom;verticalAlign=top;html=1;shape=mxgraph.basic.patternFillRect;fillStyle=grid;step=5;fillStrokeWidth=0.2;fillStrokeColor=#dddddd;fillColor=#f8cecc;strokeColor=#b85450;" parent="1" vertex="1">
          <mxGeometry x="465" y="150" width="270" height="337.5" as="geometry" />
        </mxCell>
        <mxCell id="seh4svDidzUT8uE2Y29x-7" value="Ubun2-vm" style="verticalLabelPosition=bottom;verticalAlign=top;html=1;shape=mxgraph.basic.rect;fillColor2=none;strokeWidth=1;size=20;indent=5;fillColor=#d5e8d4;strokeColor=#82b366;align=right;" parent="1" vertex="1">
          <mxGeometry x="480" y="170" width="240" height="270" as="geometry" />
        </mxCell>
        <mxCell id="seh4svDidzUT8uE2Y29x-8" value="Child" style="rounded=1;whiteSpace=wrap;html=1;fillColor=#dae8fc;strokeColor=#6c8ebf;align=center;textDirection=ltr;verticalAlign=bottom;" parent="1" vertex="1">
          <mxGeometry x="140" y="190" width="165" height="220" as="geometry" />
        </mxCell>
        <mxCell id="seh4svDidzUT8uE2Y29x-9" value="Child2" style="rounded=1;whiteSpace=wrap;html=1;fillColor=#dae8fc;strokeColor=#6c8ebf;align=center;verticalAlign=bottom;" parent="1" vertex="1">
          <mxGeometry x="510" y="190" width="170" height="230" as="geometry" />
        </mxCell>
        <mxCell id="seh4svDidzUT8uE2Y29x-12" value="" style="verticalLabelPosition=bottom;verticalAlign=top;html=1;shape=mxgraph.basic.patternFillRect;fillStyle=grid;step=5;fillStrokeWidth=0.2;fillStrokeColor=#dddddd;labelBackgroundColor=none;fillColor=#f8cecc;strokeColor=#b85450;" parent="1" vertex="1">
          <mxGeometry x="374.5" y="150" width="79" height="337.5" as="geometry" />
        </mxCell>
        <mxCell id="seh4svDidzUT8uE2Y29x-14" value="" style="verticalLabelPosition=bottom;verticalAlign=top;html=1;shape=mxgraph.basic.patternFillRect;fillStyle=grid;step=5;fillStrokeWidth=0.2;fillStrokeColor=#dddddd;fillColor=#f8cecc;strokeColor=#b85450;" parent="1" vertex="1">
          <mxGeometry x="180" y="197" width="90" height="40" as="geometry" />
        </mxCell>
        <mxCell id="seh4svDidzUT8uE2Y29x-15" value="" style="verticalLabelPosition=bottom;verticalAlign=top;html=1;shape=mxgraph.basic.patternFillRect;fillStyle=grid;step=5;fillStrokeWidth=0.2;fillStrokeColor=#dddddd;fillColor=#f8cecc;strokeColor=#b85450;" parent="1" vertex="1">
          <mxGeometry x="180" y="255" width="90" height="60" as="geometry" />
        </mxCell>
        <mxCell id="seh4svDidzUT8uE2Y29x-16" value="" style="verticalLabelPosition=bottom;verticalAlign=top;html=1;shape=mxgraph.basic.patternFillRect;fillStyle=grid;step=5;fillStrokeWidth=0.2;fillStrokeColor=#dddddd;fillColor=#f8cecc;strokeColor=#b85450;" parent="1" vertex="1">
          <mxGeometry x="550" y="200" width="100" height="40" as="geometry" />
        </mxCell>
        <mxCell id="seh4svDidzUT8uE2Y29x-17" value="" style="verticalLabelPosition=bottom;verticalAlign=top;html=1;shape=mxgraph.basic.patternFillRect;fillStyle=grid;step=5;fillStrokeWidth=0.2;fillStrokeColor=#dddddd;fillColor=#f8cecc;strokeColor=#b85450;" parent="1" vertex="1">
          <mxGeometry x="550" y="260" width="100" height="60" as="geometry" />
        </mxCell>
        <mxCell id="seh4svDidzUT8uE2Y29x-20" value="" style="verticalLabelPosition=bottom;verticalAlign=top;html=1;shape=mxgraph.basic.patternFillRect;fillStyle=grid;step=5;fillStrokeWidth=0.2;fillStrokeColor=#dddddd;fillColor=#f8cecc;strokeColor=#b85450;" parent="1" vertex="1">
          <mxGeometry x="180" y="330" width="90" height="50" as="geometry" />
        </mxCell>
        <mxCell id="seh4svDidzUT8uE2Y29x-21" value="" style="verticalLabelPosition=bottom;verticalAlign=top;html=1;shape=mxgraph.basic.patternFillRect;fillStyle=grid;step=5;fillStrokeWidth=0.2;fillStrokeColor=#dddddd;fillColor=#f8cecc;strokeColor=#b85450;" parent="1" vertex="1">
          <mxGeometry x="550" y="330" width="100" height="60" as="geometry" />
        </mxCell>
        <mxCell id="seh4svDidzUT8uE2Y29x-22" value="" style="rounded=1;whiteSpace=wrap;html=1;strokeWidth=2;fillWeight=4;hachureGap=8;hachureAngle=45;fillColor=#1ba1e2;sketch=1;" parent="1" vertex="1">
          <mxGeometry x="200" y="270" width="50" height="30" as="geometry" />
        </mxCell>
        <mxCell id="seh4svDidzUT8uE2Y29x-23" value="" style="rounded=1;whiteSpace=wrap;html=1;strokeWidth=2;fillWeight=4;hachureGap=8;hachureAngle=45;fillColor=#1ba1e2;sketch=1;" parent="1" vertex="1">
          <mxGeometry x="200" y="340" width="50" height="30" as="geometry" />
        </mxCell>
        <mxCell id="seh4svDidzUT8uE2Y29x-24" value="" style="rounded=1;whiteSpace=wrap;html=1;strokeWidth=2;fillWeight=4;hachureGap=8;hachureAngle=45;fillColor=#1ba1e2;sketch=1;" parent="1" vertex="1">
          <mxGeometry x="575" y="270" width="50" height="30" as="geometry" />
        </mxCell>
        <mxCell id="seh4svDidzUT8uE2Y29x-25" value="" style="rounded=1;whiteSpace=wrap;html=1;strokeWidth=2;fillWeight=4;hachureGap=8;hachureAngle=45;fillColor=#1ba1e2;sketch=1;" parent="1" vertex="1">
          <mxGeometry x="575" y="340" width="50" height="30" as="geometry" />
        </mxCell>
        <mxCell id="GDawss019be2_g49NsiS-2" value="" style="aspect=fixed;sketch=0;html=1;dashed=0;whitespace=wrap;verticalLabelPosition=bottom;verticalAlign=top;fillColor=#2875E2;strokeColor=#ffffff;points=[[0.005,0.63,0],[0.1,0.2,0],[0.9,0.2,0],[0.5,0,0],[0.995,0.63,0],[0.72,0.99,0],[0.5,1,0],[0.28,0.99,0]];shape=mxgraph.kubernetes.icon2;prIcon=api" vertex="1" parent="1">
          <mxGeometry x="389" y="295" width="50" height="48" as="geometry" />
        </mxCell>
        <mxCell id="GDawss019be2_g49NsiS-3" value="Main-Control-Plane" style="aspect=fixed;sketch=0;html=1;dashed=0;whitespace=wrap;verticalLabelPosition=bottom;verticalAlign=middle;fillColor=#2875E2;strokeColor=#ffffff;points=[[0.005,0.63,0],[0.1,0.2,0],[0.9,0.2,0],[0.5,0,0],[0.995,0.63,0],[0.72,0.99,0],[0.5,1,0],[0.28,0.99,0]];shape=mxgraph.kubernetes.icon2;prIcon=api;horizontal=1;align=center;fontSize=12;" vertex="1" parent="1">
          <mxGeometry x="389" y="295" width="50" height="48" as="geometry" />
        </mxCell>
        <mxCell id="GDawss019be2_g49NsiS-4" value="" style="aspect=fixed;sketch=0;html=1;dashed=0;whitespace=wrap;verticalLabelPosition=bottom;verticalAlign=top;fillColor=#2875E2;strokeColor=#ffffff;points=[[0.005,0.63,0],[0.1,0.2,0],[0.9,0.2,0],[0.5,0,0],[0.995,0.63,0],[0.72,0.99,0],[0.5,1,0],[0.28,0.99,0]];shape=mxgraph.kubernetes.icon2;prIcon=api" vertex="1" parent="1">
          <mxGeometry x="204.79" y="200" width="35.42" height="34" as="geometry" />
        </mxCell>
        <mxCell id="GDawss019be2_g49NsiS-7" value="" style="aspect=fixed;sketch=0;html=1;dashed=0;whitespace=wrap;verticalLabelPosition=bottom;verticalAlign=top;fillColor=#2875E2;strokeColor=#ffffff;points=[[0.005,0.63,0],[0.1,0.2,0],[0.9,0.2,0],[0.5,0,0],[0.995,0.63,0],[0.72,0.99,0],[0.5,1,0],[0.28,0.99,0]];shape=mxgraph.kubernetes.icon2;prIcon=api" vertex="1" parent="1">
          <mxGeometry x="582.29" y="203" width="35.42" height="34" as="geometry" />
        </mxCell>
      </root>
    </mxGraphModel>
  </diagram>
</mxfile>
